# xmcd
#
# Track frame offsets:
#	150
#	12450
#	23120
#	36647
#	51682
#	63932
#	77827
#	90362
#	101597
#	112712
#	125025
#	137010
#	150502
#	162267
#	174120
#	185355
#
# Disc length: 2600 seconds
#
# Revision: 1
# Processed by: cddbd v1.5PL3 Copyright (c) Steve Scherf et al.
# Submitted via: audiograbber 1.80
#
DISCID=ca0a2610
DTITLE=melvin smith - At His Best disc 2
DYEAR=1900
DGENRE=
TTITLE0=Sarah Kelly (From Plumnelly) 
TTITLE1=Six Times Six 
TTITLE2=Call Me Darling, Call Me Sweetheart,...Dear 
TTITLE3=What's To Become Of Me 
TTITLE4=Hot Ziggety Zag 
TTITLE5=Letter To My Baby 
TTITLE6=I Don't Have To Hunt No More 
TTITLE7=Every Pound 
TTITLE8=Miss Brown 
TTITLE9=I Feel Like Goin' Home 
TTITLE10=It Went Down Easy 
TTITLE11=Why Do These Things Have To Be 
TTITLE12=Things You Oughta Know 
TTITLE13=No Baby 
TTITLE14=You Can't Stay Here 
TTITLE15=Crazy Baby 
EXTD=
EXTT0=
EXTT1=
EXTT2=
EXTT3=
EXTT4=
EXTT5=
EXTT6=
EXTT7=
EXTT8=
EXTT9=
EXTT10=
EXTT11=
EXTT12=
EXTT13=
EXTT14=
EXTT15=
PLAYORDER=
